<svg xmlns="http://www.w3.org/2000/svg" viewBox="0 0 48 48" width="48" height="48">
  <path d="M 44.25 38.42 C 43.47 36.14 42.5 34.21 41.34 32.63 C 35.8 35.18 29.99 34.3 24.73 29.69 C 24.56 29.53 24.4 29.37 24.23 29.22 C 19.56 31.36 17.73 34.8 17.28 38.32 C 26.07 45.96 36.36 48.4 46.18 44.14 Z" fill="#FFFFFF"/>
  <path d="M 22.88 11.57 C 28.09 15.36 30.02 21.33 28.62 28.37 C 28.59 28.49 28.56 28.59 28.53 28.71 C 31.84 30.96 35.27 31.52 38.77 30.34 C 39.16 30.21 39.55 30.05 39.93 29.87 C 41.91 19.02 39.07 8.44 30.46 1.78 L 26.23 6.6 C 24.77 8.26 23.66 9.92 22.88 11.57 Z" fill="#FFFFFF"/>
  <path d="M 8.05 37.68 C 10.27 38.12 12.32 38.27 14.19 38.13 C 14.86 32.24 18.51 27.78 25 25.58 C 25.3 25.47 25.59 25.4 25.89 25.31 C 26.23 20.81 24.82 17.19 21.78 14.64 C 21.66 14.68 21.54 14.7 21.43 14.74 C 10.49 18.45 3.21 26 1.82 36.44 Z" fill="#FFFFFF"/>
</svg>
