<svg xmlns="http://www.w3.org/2000/svg" viewBox="0 0 240 48" width="240" height="48">
  <!-- Triskelion mark (48x48 area) + wordmark -->

  <!-- Blue -->
  <path d="M 25.92 4.09 A 20 20 0 0 1 44 24.17 L 32.96 30.39 A 11 11 0 0 0 31.14 15.64 Z" fill="#1E72C8"/>

  <!-- Red -->
  <path d="M 5.8 32.29 A 20 20 0 0 1 14.15 6.59 L 25.05 13.05 A 11 11 0 0 0 13.18 22 Z" fill="#C82020"/>

  <!-- Green -->
  <path d="M 40.28 35.61 A 20 20 0 0 1 13.85 41.23 L 13.99 28.56 A 11 11 0 0 0 27.67 34.37 Z" fill="#1A7A30"/>

  <!-- Wordmark -->
  <text x="58" y="32"
        font-family="Inter, sans-serif"
        font-size="22"
        font-weight="700"
        letter-spacing="-0.02em"
        fill="#171717">LTS</text>
  <text x="100" y="32"
        font-family="Inter, sans-serif"
        font-size="22"
        font-weight="400"
        letter-spacing="-0.01em"
        fill="#171717">Commerce</text>
</svg>
