<svg xmlns="http://www.w3.org/2000/svg" viewBox="266 297 836 172" width="233" height="48">
  <!-- Symbol mark -->
  <path d="M 426.699219 435.925781 C 423.824219 427.449219 420.195312 420.28125 415.898438 414.425781 C 395.328125 423.886719 373.722656 420.621094 354.1875 403.480469 C 353.542969 402.910156 352.972656 402.3125 352.347656 401.738281 C 335 409.683594 328.175781 422.46875 326.53125 435.5625 C 359.164062 463.921875 397.410156 473.007812 433.902344 457.167969 Z M 426.699219 435.925781" fill="#05723B"/>
  <path d="M 347.328125 336.179688 C 366.6875 350.253906 373.839844 372.445312 368.636719 398.578125 C 368.546875 399.015625 368.417969 399.410156 368.328125 399.839844 C 380.625 408.210938 393.367188 410.300781 406.339844 405.90625 C 407.785156 405.414062 409.234375 404.820312 410.679688 404.175781 C 418.03125 363.835938 407.472656 324.550781 375.476562 299.789062 L 359.769531 317.691406 C 354.339844 323.882812 350.238281 330.058594 347.328125 336.179688" fill="#007EB7"/>
  <path d="M 292.21875 433.179688 C 300.46875 434.824219 308.082031 435.363281 315.03125 434.859375 C 317.527344 412.960938 331.074219 396.382812 355.199219 388.203125 C 356.308594 387.828125 357.40625 387.550781 358.511719 387.222656 C 359.757812 370.503906 354.53125 357.0625 343.222656 347.574219 C 342.789062 347.71875 342.359375 347.8125 341.925781 347.960938 C 301.296875 361.734375 274.226562 389.761719 269.0625 428.566406 Z M 292.21875 433.179688" fill="#ED2C2A"/>

  <!-- LTS -->
  <path d="M 449.777344 348.148438 L 449.777344 403.4375 L 484.214844 403.4375 L 484.214844 415.109375 L 437.148438 415.109375 L 437.148438 348.148438 Z M 449.777344 348.148438" fill="#1A1A1A"/>
  <path d="M 500.953125 359.625 L 479.714844 359.625 L 479.714844 348.148438 L 534.816406 348.148438 L 534.816406 359.625 L 513.578125 359.625 L 513.578125 415.109375 L 500.953125 415.109375 Z M 500.953125 359.625" fill="#1A1A1A"/>
  <path d="M 584.269531 364.3125 C 581.972656 360.488281 575.660156 356.851562 568.390625 356.851562 C 559.015625 356.851562 554.519531 360.773438 554.519531 365.746094 C 554.519531 371.585938 561.40625 373.210938 569.441406 374.167969 C 583.410156 375.886719 596.417969 379.523438 596.417969 395.5 C 596.417969 410.421875 583.21875 416.832031 568.292969 416.832031 C 554.613281 416.832031 544.09375 412.621094 539.117188 400.378906 L 549.640625 394.925781 C 552.605469 402.289062 560.355469 405.542969 568.484375 405.542969 C 576.425781 405.542969 583.886719 402.769531 583.886719 395.5 C 583.886719 389.183594 577.285156 386.601562 568.390625 385.644531 C 554.710938 384.019531 542.082031 380.382812 542.082031 365.367188 C 542.082031 351.589844 555.667969 345.945312 568.007812 345.851562 C 578.433594 345.851562 589.246094 348.816406 594.3125 359.148438 Z M 584.269531 364.3125" fill="#1A1A1A"/>

  <!-- Commerce -->
  <path d="M 663.378906 405.832031 C 656.683594 412.523438 647.785156 415.875 638.984375 415.875 C 616.410156 415.875 604.644531 400.089844 604.546875 382.011719 C 604.355469 364.121094 616.027344 347.382812 638.984375 347.382812 C 647.785156 347.382812 656.683594 350.730469 663.378906 357.425781 L 659.839844 360.488281 C 654.097656 354.746094 646.542969 351.972656 638.984375 351.972656 C 619.46875 351.972656 609.425781 365.75 609.519531 381.820312 C 609.714844 397.507812 619.660156 411.089844 638.984375 411.089844 C 646.542969 411.089844 654.195312 408.222656 659.933594 402.578125 Z M 663.378906 405.832031" fill="#007EB7"/>
  <path d="M 715.316406 391.578125 C 715.316406 379.332031 706.613281 371.390625 695.898438 371.390625 C 685.183594 371.390625 676.480469 379.332031 676.480469 391.578125 C 676.480469 403.820312 685.183594 411.1875 695.898438 411.1875 C 706.613281 411.1875 715.316406 403.820312 715.316406 391.578125 M 671.886719 391.578125 C 671.886719 376.558594 682.601562 366.992188 695.898438 366.992188 C 709.195312 366.992188 719.910156 376.558594 719.910156 391.578125 C 719.910156 406.59375 709.195312 415.777344 695.898438 415.777344 C 682.601562 415.777344 671.886719 406.59375 671.886719 391.578125" fill="#007EB7"/>
  <path d="M 801.21875 415.109375 L 801.21875 386.792969 C 801.21875 377.707031 795.097656 371.296875 786.105469 371.296875 C 777.113281 371.296875 770.894531 377.992188 770.894531 387.082031 L 770.894531 415.109375 L 766.207031 415.109375 L 766.207031 387.082031 C 766.207031 377.992188 759.988281 371.390625 750.996094 371.390625 C 742.003906 371.390625 735.882812 377.992188 735.882812 387.082031 L 735.882812 415.109375 L 731.195312 415.109375 L 731.195312 367.851562 L 735.59375 367.851562 L 735.691406 375.695312 C 738.945312 369.480469 744.96875 366.894531 751.089844 366.894531 C 758.269531 366.894531 765.824219 370.148438 768.597656 378.566406 C 771.46875 370.820312 778.832031 366.894531 786.105469 366.894531 C 797.679688 366.894531 805.90625 375.027344 805.90625 386.792969 L 805.90625 415.109375 Z M 801.21875 415.109375" fill="#007EB7"/>
  <path d="M 889.605469 415.109375 L 889.605469 386.792969 C 889.605469 377.707031 883.484375 371.296875 874.492188 371.296875 C 865.5 371.296875 859.28125 377.992188 859.28125 387.082031 L 859.28125 415.109375 L 854.59375 415.109375 L 854.59375 387.082031 C 854.59375 377.992188 848.375 371.390625 839.382812 371.390625 C 830.390625 371.390625 824.269531 377.992188 824.269531 387.082031 L 824.269531 415.109375 L 819.582031 415.109375 L 819.582031 367.851562 L 823.980469 367.851562 L 824.078125 375.695312 C 827.332031 369.480469 833.355469 366.894531 839.476562 366.894531 C 846.652344 366.894531 854.210938 370.148438 856.984375 378.566406 C 859.855469 370.820312 867.21875 366.894531 874.492188 366.894531 C 886.066406 366.894531 894.292969 375.027344 894.292969 386.792969 L 894.292969 415.109375 Z M 889.605469 415.109375" fill="#007EB7"/>
  <path d="M 948.433594 389.566406 C 948.335938 377.898438 940.683594 371.390625 929.300781 371.390625 C 919.542969 371.390625 911.125 377.992188 910.074219 389.566406 Z M 905.289062 391.480469 C 905.289062 377.324219 916.003906 367.085938 929.300781 367.085938 C 942.597656 367.085938 954.457031 375.21875 952.640625 393.679688 L 910.074219 393.679688 C 911.03125 404.777344 919.542969 411.1875 929.300781 411.1875 C 935.519531 411.1875 942.789062 408.699219 946.328125 404.011719 L 949.675781 406.691406 C 945.085938 412.714844 936.859375 415.777344 929.300781 415.777344 C 916.003906 415.777344 905.289062 406.5 905.289062 391.480469" fill="#007EB7"/>
  <path d="M 969.667969 367.851562 L 969.859375 376.269531 C 972.824219 369.859375 979.519531 367.375 985.546875 367.375 C 989.085938 367.277344 992.527344 368.234375 995.6875 370.148438 L 993.582031 373.976562 C 991.09375 372.445312 988.320312 371.773438 985.546875 371.773438 C 976.746094 371.871094 969.953125 378.949219 969.953125 387.558594 L 969.953125 415.109375 L 965.265625 415.109375 L 965.265625 367.851562 Z M 969.667969 367.851562" fill="#007EB7"/>
  <path d="M 1041.984375 408.507812 C 1037.199219 413.289062 1030.980469 415.585938 1024.765625 415.585938 C 1011.46875 415.585938 1000.464844 406.402344 1000.464844 391.480469 C 1000.464844 376.558594 1011.085938 367.375 1024.765625 367.375 C 1030.980469 367.375 1037.199219 369.765625 1041.984375 374.453125 L 1038.921875 377.417969 C 1035.097656 373.59375 1029.835938 371.773438 1024.765625 371.773438 C 1014.050781 371.773438 1005.058594 378.757812 1005.058594 391.480469 C 1005.058594 404.203125 1014.050781 411.1875 1024.765625 411.1875 C 1029.835938 411.1875 1035 409.179688 1038.828125 405.351562 Z M 1041.984375 408.507812" fill="#007EB7"/>
  <path d="M 1094.402344 389.566406 C 1094.304688 377.898438 1086.652344 371.390625 1075.269531 371.390625 C 1065.511719 371.390625 1057.09375 377.992188 1056.042969 389.566406 Z M 1051.257812 391.480469 C 1051.257812 377.324219 1061.972656 367.085938 1075.269531 367.085938 C 1088.566406 367.085938 1100.425781 375.21875 1098.609375 393.679688 L 1056.042969 393.679688 C 1057 404.777344 1065.511719 411.1875 1075.269531 411.1875 C 1081.488281 411.1875 1088.757812 408.699219 1092.296875 404.011719 L 1095.644531 406.691406 C 1091.054688 412.714844 1082.828125 415.777344 1075.269531 415.777344 C 1061.972656 415.777344 1051.257812 406.5 1051.257812 391.480469" fill="#007EB7"/>
</svg>